<?xml version="1.0" standalone="no"?><!DOCTYPE svg PUBLIC "-//W3C//DTD SVG 1.1//EN" "http://www.w3.org/Graphics/SVG/1.1/DTD/svg11.dtd"><svg t="1638836187271" class="icon" viewBox="0 0 1024 1024" version="1.1" xmlns="http://www.w3.org/2000/svg" p-id="2337" xmlns:xlink="http://www.w3.org/1999/xlink" width="200" height="200"><defs><style type="text/css"></style></defs><path d="M684.8 761.6c-19.2 0-32-12.8-32-32s12.8-32 32-32h89.6c102.4 0 185.6-83.2 185.6-185.6s-83.2-185.6-185.6-185.6h-44.8-12.8c-12.8 0-25.6-6.4-32-19.2-25.6-96-115.2-160-217.6-160-128 0-230.4 102.4-230.4 230.4 0 19.2-12.8 32-32 32C128 409.6 64 473.6 64 556.8c0 83.2 64 140.8 140.8 140.8h128c19.2 0 32 12.8 32 32s-12.8 32-32 32h-128C89.6 761.6 0 672 0 556.8c0-102.4 70.4-185.6 166.4-204.8h6.4v-6.4c19.2-147.2 140.8-256 294.4-256 108.8 0 217.6 64 268.8 172.8h32c140.8 0 256 108.8 256 249.6s-115.2 249.6-249.6 249.6h-89.6zM512 934.4c-19.2 0-32-12.8-32-32V544L403.2 620.8c-6.4 6.4-12.8 6.4-19.2 6.4s-12.8 0-19.2-12.8c-12.8-12.8-12.8-32 0-44.8L486.4 448c0-6.4 12.8-12.8 25.6-12.8s25.6 6.4 25.6 12.8l121.6 121.6c6.4 6.4 6.4 12.8 6.4 19.2s-6.4 12.8-6.4 19.2c-6.4 6.4-12.8 12.8-19.2 12.8s-12.8 0-19.2-12.8l-76.8-64v358.4c0 19.2-12.8 32-32 32z" fill="" p-id="2338"></path></svg>