<?xml version="1.0" standalone="no"?><!DOCTYPE svg PUBLIC "-//W3C//DTD SVG 1.1//EN" "http://www.w3.org/Graphics/SVG/1.1/DTD/svg11.dtd"><svg class="icon" width="200px" height="112.53px" viewBox="0 0 1820 1024" version="1.1" xmlns="http://www.w3.org/2000/svg"><path fill="#333333" d="M1127.841185 403.076741c0-121.362963-97.09037-218.453333-218.453333-218.453334s-218.453333 97.09037-218.453333 218.453334c0 82.526815 43.690667 152.917333 111.653925 189.326222-92.235852 36.408889-162.62637 116.508444-182.044444 218.453333-2.427259 12.136296 4.854519 26.699852 19.418074 29.127111h4.854519c12.136296 0 21.845333-7.281778 24.272592-19.418074 21.845333-114.081185 121.362963-196.608 237.871408-199.035259h4.854518c118.945185 0 216.026074-97.09037 216.026074-218.453333z m-388.352 0c0-94.663111 75.245037-169.908148 169.908148-169.908148s169.908148 75.245037 169.908148 169.908148c0 92.235852-75.245037 167.480889-167.480888 169.908148H904.533333c-92.22637-2.427259-165.044148-77.672296-165.044148-169.908148z m330.107259 220.880592c-12.136296-7.281778-26.699852-4.854519-33.981629 7.281778-7.281778 12.136296-4.854519 26.699852 7.281778 33.98163 55.826963 38.836148 94.663111 92.235852 106.799407 155.344592 2.427259 12.136296 12.136296 19.418074 24.272593 19.418074h4.854518c12.136296-2.427259 21.845333-14.563556 19.418074-29.127111-14.563556-75.245037-60.681481-140.781037-128.644741-186.898963z m0 0" /></svg>