<?xml version="1.0" standalone="no"?><!DOCTYPE svg PUBLIC "-//W3C//DTD SVG 1.1//EN" "http://www.w3.org/Graphics/SVG/1.1/DTD/svg11.dtd"><svg class="icon" width="200px" height="126.73px" viewBox="0 0 1616 1024" version="1.1" xmlns="http://www.w3.org/2000/svg"><path fill="#333333" d="M90.198771 911.521684c-37.941895-14.551579-57.397895-58.691368-43.546948-98.519579a707.530105 707.530105 0 0 1 120.993684-214.662737c10.347789-12.665263 21.018947-24.953263 32.175158-36.864L20.890139 373.76a79.494737 79.494737 0 0 1 0.538947-108.005053c13.581474-14.443789 32.067368-22.635789 51.361685-22.689684 19.294316-0.107789 37.834105 7.868632 51.577263 22.096842l187.930947 197.308632c35.085474-25.330526 72.380632-47.804632 111.454316-67.368421L309.065297 137.323789c-16.653474-38.373053-0.700632-83.644632 35.678316-101.429894A69.524211 69.524211 0 0 1 400.470771 32.929684c18.216421 6.844632 33.037474 21.018947 41.229473 39.343158l119.484632 269.096421a854.393263 854.393263 0 0 1 157.642105-30.288842v-234.981053C719.096455 33.953684 751.756665 0 791.908244 0c40.636632 0 73.081263 34.061474 73.081263 75.991579v233.36421c61.817263 4.311579 122.179368 15.306105 179.900632 32.229053l119.646316-269.258105c8.245895-18.324211 23.066947-32.552421 41.229473-39.343158a69.524211 69.524211 0 0 1 55.673264 2.856421c36.378947 17.785263 52.277895 63.002947 35.73221 101.322105l-114.795789 258.425263c43.061895 21.288421 84.075789 46.618947 122.502736 75.668211 2.155789-3.988211 4.850526-7.814737 7.814737-11.317895l190.248421-221.776842c12.557474-14.551579 29.588211-22.635789 47.265685-22.581895 17.677474 0.107789 34.654316 8.407579 47.050105 23.120842 25.977263 30.288842 26.192842 79.225263 0.485052 109.837474l-187.445894 218.489263a707.530105 707.530105 0 0 1 148.210526 245.975579 79.764211 79.764211 0 0 1-12.557474 75.668211c-16.707368 21.018947-42.900211 31.097263-68.661894 26.408421a74.159158 74.159158 0 0 1-56.104421-49.25979 552.259368 552.259368 0 0 0-94.639158-167.450947c-120.939789-147.994947-313.559579-237.837474-523.910737-237.837474-210.405053 0-403.024842 89.896421-523.964632 237.837474a552.259368 552.259368 0 0 0-94.639158 167.450947c-13.904842 39.828211-55.888842 60.254316-93.830736 45.702737zM808.453928 592.842105a215.578947 215.578947 0 1 0 0 431.157895 215.578947 215.578947 0 0 0 0-431.157895z"  /></svg>